# xmcd CD database file
#
# Track frame offsets:
#	150
#	14680
#	27502
#	41355
#	53860
#	67452
#	80527
#	94272
#	107330
#	119297
#	131740
#	145890
#	157070
#	170792
#	185010
#	199702
#	221842
#	234385
#	248475
#	263687
#	277675
#	291227
#
# Disc length: 4072 seconds
#
# Revision: 0
# Processed by: cddbd v1.5.2PL0 Copyright (c) Steve Scherf et al.
# Submitted via: CDex 1.51
#
DISCID=4c0fe616
DTITLE=Lester Young - The Classic Jazz Collection - Sometimes I'm Happy
DYEAR=1996
DGENRE=Jazz
TTITLE0=Lady Be Good
TTITLE1=When You're Smiling
TTITLE2=Shone Shine Boy
TTITLE3=Me, Myself And I
TTITLE4='Way Down Yonder In New Orleans
TTITLE5=I Want A Little Girl
TTITLE6=Countless Blues
TTITLE7=Taxi War Dance
TTITLE8=Dark Rapture
TTITLE9=Pound Cake
TTITLE10=You Can Depend On Me
TTITLE11=Clap Hands, Here Comes Charlie
TTITLE12=Beautiful Eyes
TTITLE13=Dickie's Dream
TTITLE14=Lester Leaps In
TTITLE15=I Can't Get Started
TTITLE16=Tickle Toe
TTITLE17=Sometimes I'm Happy
TTITLE18=Blue Lester
TTITLE19=Linger Awhile
TTITLE20=D. B. Blues
TTITLE21=These Foolish Things
EXTD=YEAR: 1996
EXTT0=
EXTT1=
EXTT2=
EXTT3=
EXTT4=
EXTT5=
EXTT6=
EXTT7=
EXTT8=
EXTT9=
EXTT10=
EXTT11=
EXTT12=
EXTT13=
EXTT14=
EXTT15=
EXTT16=
EXTT17=
EXTT18=
EXTT19=
EXTT20=
EXTT21=
PLAYORDER=
